<svg width="280" height="100" viewBox="0 0 280 100" fill="none" xmlns="http://www.w3.org/2000/svg">
<rect width="280" height="100" fill="#1E1E1E"/>
<rect width="573" height="563" transform="translate(-28 -58)" fill="#D3D3D3"/>
<rect x="-18" y="-38" width="311" height="180" fill="#D5161E"/>
<path d="M96.762 92.09C96.282 92.09 95.835 92.012 95.421 91.856C95.013 91.694 94.656 91.469 94.35 91.181C94.05 90.887 93.816 90.542 93.648 90.146C93.48 89.75 93.396 89.318 93.396 88.85C93.396 88.382 93.48 87.95 93.648 87.554C93.816 87.158 94.053 86.816 94.359 86.528C94.665 86.234 95.022 86.009 95.43 85.853C95.838 85.691 96.285 85.61 96.771 85.61C97.287 85.61 97.758 85.7 98.184 85.88C98.61 86.054 98.97 86.315 99.264 86.663L98.508 87.374C98.28 87.128 98.025 86.945 97.743 86.825C97.461 86.699 97.155 86.636 96.825 86.636C96.495 86.636 96.192 86.69 95.916 86.798C95.646 86.906 95.409 87.059 95.205 87.257C95.007 87.455 94.851 87.689 94.737 87.959C94.629 88.229 94.575 88.526 94.575 88.85C94.575 89.174 94.629 89.471 94.737 89.741C94.851 90.011 95.007 90.245 95.205 90.443C95.409 90.641 95.646 90.794 95.916 90.902C96.192 91.01 96.495 91.064 96.825 91.064C97.155 91.064 97.461 91.004 97.743 90.884C98.025 90.758 98.28 90.569 98.508 90.317L99.264 91.037C98.97 91.379 98.61 91.64 98.184 91.82C97.758 92 97.284 92.09 96.762 92.09ZM104.331 92.063C103.839 92.063 103.401 91.958 103.017 91.748C102.633 91.532 102.33 91.238 102.108 90.866C101.886 90.494 101.775 90.071 101.775 89.597C101.775 89.117 101.886 88.694 102.108 88.328C102.33 87.956 102.633 87.665 103.017 87.455C103.401 87.245 103.839 87.14 104.331 87.14C104.829 87.14 105.27 87.245 105.654 87.455C106.044 87.665 106.347 87.953 106.563 88.319C106.785 88.685 106.896 89.111 106.896 89.597C106.896 90.071 106.785 90.494 106.563 90.866C106.347 91.238 106.044 91.532 105.654 91.748C105.27 91.958 104.829 92.063 104.331 92.063ZM104.331 91.1C104.607 91.1 104.853 91.04 105.069 90.92C105.285 90.8 105.453 90.626 105.573 90.398C105.699 90.17 105.762 89.903 105.762 89.597C105.762 89.285 105.699 89.018 105.573 88.796C105.453 88.568 105.285 88.394 105.069 88.274C104.853 88.154 104.61 88.094 104.34 88.094C104.064 88.094 103.818 88.154 103.602 88.274C103.392 88.394 103.224 88.568 103.098 88.796C102.972 89.018 102.909 89.285 102.909 89.597C102.909 89.903 102.972 90.17 103.098 90.398C103.224 90.626 103.392 90.8 103.602 90.92C103.818 91.04 104.061 91.1 104.331 91.1ZM112.769 87.14C113.153 87.14 113.495 87.215 113.795 87.365C114.101 87.515 114.341 87.746 114.515 88.058C114.689 88.364 114.776 88.76 114.776 89.246V92H113.651V89.39C113.651 88.964 113.549 88.646 113.345 88.436C113.147 88.226 112.868 88.121 112.508 88.121C112.244 88.121 112.01 88.175 111.806 88.283C111.602 88.391 111.443 88.553 111.329 88.769C111.221 88.979 111.167 89.246 111.167 89.57V92H110.042V87.194H111.113V88.49L110.924 88.094C111.092 87.788 111.335 87.554 111.653 87.392C111.977 87.224 112.349 87.14 112.769 87.14ZM119.758 92.063C119.356 92.063 118.969 92.012 118.597 91.91C118.231 91.802 117.94 91.673 117.724 91.523L118.156 90.668C118.372 90.806 118.63 90.92 118.93 91.01C119.23 91.1 119.53 91.145 119.83 91.145C120.184 91.145 120.439 91.097 120.595 91.001C120.757 90.905 120.838 90.776 120.838 90.614C120.838 90.482 120.784 90.383 120.676 90.317C120.568 90.245 120.427 90.191 120.253 90.155C120.079 90.119 119.884 90.086 119.668 90.056C119.458 90.026 119.245 89.987 119.029 89.939C118.819 89.885 118.627 89.81 118.453 89.714C118.279 89.612 118.138 89.477 118.03 89.309C117.922 89.141 117.868 88.919 117.868 88.643C117.868 88.337 117.955 88.073 118.129 87.851C118.303 87.623 118.546 87.449 118.858 87.329C119.176 87.203 119.551 87.14 119.983 87.14C120.307 87.14 120.634 87.176 120.964 87.248C121.294 87.32 121.567 87.422 121.783 87.554L121.351 88.409C121.123 88.271 120.892 88.178 120.658 88.13C120.43 88.076 120.202 88.049 119.974 88.049C119.632 88.049 119.377 88.1 119.209 88.202C119.047 88.304 118.966 88.433 118.966 88.589C118.966 88.733 119.02 88.841 119.128 88.913C119.236 88.985 119.377 89.042 119.551 89.084C119.725 89.126 119.917 89.162 120.127 89.192C120.343 89.216 120.556 89.255 120.766 89.309C120.976 89.363 121.168 89.438 121.342 89.534C121.522 89.624 121.666 89.753 121.774 89.921C121.882 90.089 121.936 90.308 121.936 90.578C121.936 90.878 121.846 91.139 121.666 91.361C121.492 91.583 121.243 91.757 120.919 91.883C120.595 92.003 120.208 92.063 119.758 92.063ZM127.009 92.063C126.601 92.063 126.241 91.988 125.929 91.838C125.617 91.682 125.374 91.448 125.2 91.136C125.026 90.818 124.939 90.419 124.939 89.939V87.194H126.064V89.786C126.064 90.218 126.16 90.542 126.352 90.758C126.55 90.968 126.829 91.073 127.189 91.073C127.453 91.073 127.681 91.019 127.873 90.911C128.071 90.803 128.224 90.641 128.332 90.425C128.446 90.209 128.503 89.942 128.503 89.624V87.194H129.628V92H128.557V90.704L128.746 91.1C128.584 91.412 128.347 91.652 128.035 91.82C127.723 91.982 127.381 92.063 127.009 92.063ZM133.171 92V85.322H134.296V92H133.171ZM139.889 92.063C139.361 92.063 138.953 91.928 138.665 91.658C138.377 91.382 138.233 90.977 138.233 90.443V86.132H139.358V90.416C139.358 90.644 139.415 90.821 139.529 90.947C139.649 91.073 139.814 91.136 140.024 91.136C140.276 91.136 140.486 91.07 140.654 90.938L140.969 91.739C140.837 91.847 140.675 91.928 140.483 91.982C140.291 92.036 140.093 92.063 139.889 92.063ZM137.441 88.13V87.23H140.645V88.13H137.441ZM145.966 92.063C145.474 92.063 145.036 91.958 144.652 91.748C144.268 91.532 143.965 91.238 143.743 90.866C143.521 90.494 143.41 90.071 143.41 89.597C143.41 89.117 143.521 88.694 143.743 88.328C143.965 87.956 144.268 87.665 144.652 87.455C145.036 87.245 145.474 87.14 145.966 87.14C146.464 87.14 146.905 87.245 147.289 87.455C147.679 87.665 147.982 87.953 148.198 88.319C148.42 88.685 148.531 89.111 148.531 89.597C148.531 90.071 148.42 90.494 148.198 90.866C147.982 91.238 147.679 91.532 147.289 91.748C146.905 91.958 146.464 92.063 145.966 92.063ZM145.966 91.1C146.242 91.1 146.488 91.04 146.704 90.92C146.92 90.8 147.088 90.626 147.208 90.398C147.334 90.17 147.397 89.903 147.397 89.597C147.397 89.285 147.334 89.018 147.208 88.796C147.088 88.568 146.92 88.394 146.704 88.274C146.488 88.154 146.245 88.094 145.975 88.094C145.699 88.094 145.453 88.154 145.237 88.274C145.027 88.394 144.859 88.568 144.733 88.796C144.607 89.018 144.544 89.285 144.544 89.597C144.544 89.903 144.607 90.17 144.733 90.398C144.859 90.626 145.027 90.8 145.237 90.92C145.453 91.04 145.696 91.1 145.966 91.1ZM151.677 92V87.194H152.748V88.517L152.622 88.13C152.766 87.806 152.991 87.56 153.297 87.392C153.609 87.224 153.996 87.14 154.458 87.14V88.211C154.41 88.199 154.365 88.193 154.323 88.193C154.281 88.187 154.239 88.184 154.197 88.184C153.771 88.184 153.432 88.31 153.18 88.562C152.928 88.808 152.802 89.177 152.802 89.669V92H151.677ZM157.482 92V87.194H158.607V92H157.482ZM157.293 86.537L158.508 85.304H159.831L158.265 86.537H157.293ZM165.115 92V91.028L165.052 90.821V89.12C165.052 88.79 164.953 88.535 164.755 88.355C164.557 88.169 164.257 88.076 163.855 88.076C163.585 88.076 163.318 88.118 163.054 88.202C162.796 88.286 162.577 88.403 162.397 88.553L161.956 87.734C162.214 87.536 162.52 87.389 162.874 87.293C163.234 87.191 163.606 87.14 163.99 87.14C164.686 87.14 165.223 87.308 165.601 87.644C165.985 87.974 166.177 88.487 166.177 89.183V92H165.115ZM163.603 92.063C163.243 92.063 162.928 92.003 162.658 91.883C162.388 91.757 162.178 91.586 162.028 91.37C161.884 91.148 161.812 90.899 161.812 90.623C161.812 90.353 161.875 90.11 162.001 89.894C162.133 89.678 162.346 89.507 162.64 89.381C162.934 89.255 163.324 89.192 163.81 89.192H165.205V89.939H163.891C163.507 89.939 163.249 90.002 163.117 90.128C162.985 90.248 162.919 90.398 162.919 90.578C162.919 90.782 163 90.944 163.162 91.064C163.324 91.184 163.549 91.244 163.837 91.244C164.113 91.244 164.359 91.181 164.575 91.055C164.797 90.929 164.956 90.743 165.052 90.497L165.241 91.172C165.133 91.454 164.938 91.673 164.656 91.829C164.38 91.985 164.029 92.063 163.603 92.063ZM174.644 93.809C174.41 93.809 174.176 93.77 173.942 93.692C173.708 93.614 173.513 93.506 173.357 93.368L173.807 92.54C173.921 92.642 174.05 92.723 174.194 92.783C174.338 92.843 174.485 92.873 174.635 92.873C174.839 92.873 175.004 92.822 175.13 92.72C175.256 92.618 175.373 92.447 175.481 92.207L175.76 91.577L175.85 91.442L177.668 87.194H178.748L176.498 92.387C176.348 92.747 176.18 93.032 175.994 93.242C175.814 93.452 175.61 93.599 175.382 93.683C175.16 93.767 174.914 93.809 174.644 93.809ZM175.634 92.171L173.465 87.194H174.635L176.399 91.343L175.634 92.171ZM188.139 92.09C187.647 92.09 187.176 92.021 186.726 91.883C186.276 91.739 185.919 91.556 185.655 91.334L186.06 90.425C186.312 90.623 186.624 90.788 186.996 90.92C187.368 91.052 187.749 91.118 188.139 91.118C188.469 91.118 188.736 91.082 188.94 91.01C189.144 90.938 189.294 90.842 189.39 90.722C189.486 90.596 189.534 90.455 189.534 90.299C189.534 90.107 189.465 89.954 189.327 89.84C189.189 89.72 189.009 89.627 188.787 89.561C188.571 89.489 188.328 89.423 188.058 89.363C187.794 89.303 187.527 89.234 187.257 89.156C186.993 89.072 186.75 88.967 186.528 88.841C186.312 88.709 186.135 88.535 185.997 88.319C185.859 88.103 185.79 87.827 185.79 87.491C185.79 87.149 185.88 86.837 186.06 86.555C186.246 86.267 186.525 86.039 186.897 85.871C187.275 85.697 187.752 85.61 188.328 85.61C188.706 85.61 189.081 85.658 189.453 85.754C189.825 85.85 190.149 85.988 190.425 86.168L190.056 87.077C189.774 86.909 189.483 86.786 189.183 86.708C188.883 86.624 188.595 86.582 188.319 86.582C187.995 86.582 187.731 86.621 187.527 86.699C187.329 86.777 187.182 86.879 187.086 87.005C186.996 87.131 186.951 87.275 186.951 87.437C186.951 87.629 187.017 87.785 187.149 87.905C187.287 88.019 187.464 88.109 187.68 88.175C187.902 88.241 188.148 88.307 188.418 88.373C188.688 88.433 188.955 88.502 189.219 88.58C189.489 88.658 189.732 88.76 189.948 88.886C190.17 89.012 190.347 89.183 190.479 89.399C190.617 89.615 190.686 89.888 190.686 90.218C190.686 90.554 190.593 90.866 190.407 91.154C190.227 91.436 189.948 91.664 189.57 91.838C189.192 92.006 188.715 92.09 188.139 92.09ZM195.969 92.063C195.477 92.063 195.039 91.958 194.655 91.748C194.271 91.532 193.968 91.238 193.746 90.866C193.524 90.494 193.413 90.071 193.413 89.597C193.413 89.117 193.524 88.694 193.746 88.328C193.968 87.956 194.271 87.665 194.655 87.455C195.039 87.245 195.477 87.14 195.969 87.14C196.467 87.14 196.908 87.245 197.292 87.455C197.682 87.665 197.985 87.953 198.201 88.319C198.423 88.685 198.534 89.111 198.534 89.597C198.534 90.071 198.423 90.494 198.201 90.866C197.985 91.238 197.682 91.532 197.292 91.748C196.908 91.958 196.467 92.063 195.969 92.063ZM195.969 91.1C196.245 91.1 196.491 91.04 196.707 90.92C196.923 90.8 197.091 90.626 197.211 90.398C197.337 90.17 197.4 89.903 197.4 89.597C197.4 89.285 197.337 89.018 197.211 88.796C197.091 88.568 196.923 88.394 196.707 88.274C196.491 88.154 196.248 88.094 195.978 88.094C195.702 88.094 195.456 88.154 195.24 88.274C195.03 88.394 194.862 88.568 194.736 88.796C194.61 89.018 194.547 89.285 194.547 89.597C194.547 89.903 194.61 90.17 194.736 90.398C194.862 90.626 195.03 90.8 195.24 90.92C195.456 91.04 195.699 91.1 195.969 91.1ZM204.343 92.063C203.953 92.063 203.596 91.973 203.272 91.793C202.954 91.613 202.699 91.343 202.507 90.983C202.321 90.617 202.228 90.155 202.228 89.597C202.228 89.033 202.318 88.571 202.498 88.211C202.684 87.851 202.936 87.584 203.254 87.41C203.572 87.23 203.935 87.14 204.343 87.14C204.817 87.14 205.234 87.242 205.594 87.446C205.96 87.65 206.248 87.935 206.458 88.301C206.674 88.667 206.782 89.099 206.782 89.597C206.782 90.095 206.674 90.53 206.458 90.902C206.248 91.268 205.96 91.553 205.594 91.757C205.234 91.961 204.817 92.063 204.343 92.063ZM201.679 93.746V87.194H202.75V88.328L202.714 89.606L202.804 90.884V93.746H201.679ZM204.217 91.1C204.487 91.1 204.727 91.04 204.937 90.92C205.153 90.8 205.324 90.626 205.45 90.398C205.576 90.17 205.639 89.903 205.639 89.597C205.639 89.285 205.576 89.018 205.45 88.796C205.324 88.568 205.153 88.394 204.937 88.274C204.727 88.154 204.487 88.094 204.217 88.094C203.947 88.094 203.704 88.154 203.488 88.274C203.272 88.394 203.101 88.568 202.975 88.796C202.849 89.018 202.786 89.285 202.786 89.597C202.786 89.903 202.849 90.17 202.975 90.398C203.101 90.626 203.272 90.8 203.488 90.92C203.704 91.04 203.947 91.1 204.217 91.1ZM212.079 92.063C211.587 92.063 211.149 91.958 210.765 91.748C210.381 91.532 210.078 91.238 209.856 90.866C209.634 90.494 209.523 90.071 209.523 89.597C209.523 89.117 209.634 88.694 209.856 88.328C210.078 87.956 210.381 87.665 210.765 87.455C211.149 87.245 211.587 87.14 212.079 87.14C212.577 87.14 213.018 87.245 213.402 87.455C213.792 87.665 214.095 87.953 214.311 88.319C214.533 88.685 214.644 89.111 214.644 89.597C214.644 90.071 214.533 90.494 214.311 90.866C214.095 91.238 213.792 91.532 213.402 91.748C213.018 91.958 212.577 92.063 212.079 92.063ZM212.079 91.1C212.355 91.1 212.601 91.04 212.817 90.92C213.033 90.8 213.201 90.626 213.321 90.398C213.447 90.17 213.51 89.903 213.51 89.597C213.51 89.285 213.447 89.018 213.321 88.796C213.201 88.568 213.033 88.394 212.817 88.274C212.601 88.154 212.358 88.094 212.088 88.094C211.812 88.094 211.566 88.154 211.35 88.274C211.14 88.394 210.972 88.568 210.846 88.796C210.72 89.018 210.657 89.285 210.657 89.597C210.657 89.903 210.72 90.17 210.846 90.398C210.972 90.626 211.14 90.8 211.35 90.92C211.566 91.04 211.809 91.1 212.079 91.1ZM217.79 92V87.194H218.861V88.517L218.735 88.13C218.879 87.806 219.104 87.56 219.41 87.392C219.722 87.224 220.109 87.14 220.571 87.14V88.211C220.523 88.199 220.478 88.193 220.436 88.193C220.394 88.187 220.352 88.184 220.31 88.184C219.884 88.184 219.545 88.31 219.293 88.562C219.041 88.808 218.915 89.177 218.915 89.669V92H217.79ZM225.58 92.063C225.052 92.063 224.644 91.928 224.356 91.658C224.068 91.382 223.924 90.977 223.924 90.443V86.132H225.049V90.416C225.049 90.644 225.106 90.821 225.22 90.947C225.34 91.073 225.505 91.136 225.715 91.136C225.967 91.136 226.177 91.07 226.345 90.938L226.66 91.739C226.528 91.847 226.366 91.928 226.174 91.982C225.982 92.036 225.784 92.063 225.58 92.063ZM223.132 88.13V87.23H226.336V88.13H223.132ZM231.756 92.063C231.222 92.063 230.754 91.958 230.352 91.748C229.956 91.532 229.647 91.238 229.425 90.866C229.209 90.494 229.101 90.071 229.101 89.597C229.101 89.117 229.206 88.694 229.416 88.328C229.632 87.956 229.926 87.665 230.298 87.455C230.676 87.245 231.105 87.14 231.585 87.14C232.053 87.14 232.47 87.242 232.836 87.446C233.202 87.65 233.49 87.938 233.7 88.31C233.91 88.682 234.015 89.12 234.015 89.624C234.015 89.672 234.012 89.726 234.006 89.786C234.006 89.846 234.003 89.903 233.997 89.957H229.992V89.21H233.403L232.962 89.444C232.968 89.168 232.911 88.925 232.791 88.715C232.671 88.505 232.506 88.34 232.296 88.22C232.092 88.1 231.855 88.04 231.585 88.04C231.309 88.04 231.066 88.1 230.856 88.22C230.652 88.34 230.49 88.508 230.37 88.724C230.256 88.934 230.199 89.183 230.199 89.471V89.651C230.199 89.939 230.265 90.194 230.397 90.416C230.529 90.638 230.715 90.809 230.955 90.929C231.195 91.049 231.471 91.109 231.783 91.109C232.053 91.109 232.296 91.067 232.512 90.983C232.728 90.899 232.92 90.767 233.088 90.587L233.691 91.28C233.475 91.532 233.202 91.727 232.872 91.865C232.548 91.997 232.176 92.063 231.756 92.063ZM243.757 92.063C243.295 92.063 242.878 91.961 242.506 91.757C242.14 91.547 241.852 91.259 241.642 90.893C241.432 90.527 241.327 90.095 241.327 89.597C241.327 89.099 241.432 88.667 241.642 88.301C241.852 87.935 242.14 87.65 242.506 87.446C242.878 87.242 243.295 87.14 243.757 87.14C244.159 87.14 244.519 87.23 244.837 87.41C245.155 87.584 245.407 87.851 245.593 88.211C245.779 88.571 245.872 89.033 245.872 89.597C245.872 90.155 245.782 90.617 245.602 90.983C245.422 91.343 245.173 91.613 244.855 91.793C244.537 91.973 244.171 92.063 243.757 92.063ZM243.892 91.1C244.162 91.1 244.402 91.04 244.612 90.92C244.828 90.8 244.999 90.626 245.125 90.398C245.257 90.17 245.323 89.903 245.323 89.597C245.323 89.285 245.257 89.018 245.125 88.796C244.999 88.568 244.828 88.394 244.612 88.274C244.402 88.154 244.162 88.094 243.892 88.094C243.622 88.094 243.379 88.154 243.163 88.274C242.953 88.394 242.782 88.568 242.65 88.796C242.524 89.018 242.461 89.285 242.461 89.597C242.461 89.903 242.524 90.17 242.65 90.398C242.782 90.626 242.953 90.8 243.163 90.92C243.379 91.04 243.622 91.1 243.892 91.1ZM245.35 92V90.866L245.395 89.588L245.305 88.31V85.322H246.421V92H245.35ZM252.231 92.063C251.697 92.063 251.229 91.958 250.827 91.748C250.431 91.532 250.122 91.238 249.9 90.866C249.684 90.494 249.576 90.071 249.576 89.597C249.576 89.117 249.681 88.694 249.891 88.328C250.107 87.956 250.401 87.665 250.773 87.455C251.151 87.245 251.58 87.14 252.06 87.14C252.528 87.14 252.945 87.242 253.311 87.446C253.677 87.65 253.965 87.938 254.175 88.31C254.385 88.682 254.49 89.12 254.49 89.624C254.49 89.672 254.487 89.726 254.481 89.786C254.481 89.846 254.478 89.903 254.472 89.957H250.467V89.21H253.878L253.437 89.444C253.443 89.168 253.386 88.925 253.266 88.715C253.146 88.505 252.981 88.34 252.771 88.22C252.567 88.1 252.33 88.04 252.06 88.04C251.784 88.04 251.541 88.1 251.331 88.22C251.127 88.34 250.965 88.508 250.845 88.724C250.731 88.934 250.674 89.183 250.674 89.471V89.651C250.674 89.939 250.74 90.194 250.872 90.416C251.004 90.638 251.19 90.809 251.43 90.929C251.67 91.049 251.946 91.109 252.258 91.109C252.528 91.109 252.771 91.067 252.987 90.983C253.203 90.899 253.395 90.767 253.563 90.587L254.166 91.28C253.95 91.532 253.677 91.727 253.347 91.865C253.023 91.997 252.651 92.063 252.231 92.063ZM263.584 92V86.69H261.496V85.7H266.842V86.69H264.754V92H263.584ZM269.79 92V85.7H270.96V92H269.79Z" fill="white"/>
<path d="M97.328 77.18C96.452 77.18 95.666 77.036 94.97 76.748C94.274 76.46 93.728 76.064 93.332 75.56C92.936 75.056 92.738 74.474 92.738 73.814C92.738 73.214 92.87 72.674 93.134 72.194C93.398 71.714 93.818 71.258 94.394 70.826C94.97 70.382 95.708 69.938 96.608 69.494C97.316 69.146 97.868 68.84 98.264 68.576C98.672 68.312 98.954 68.06 99.11 67.82C99.278 67.58 99.362 67.328 99.362 67.064C99.362 66.704 99.236 66.416 98.984 66.2C98.732 65.972 98.372 65.858 97.904 65.858C97.4 65.858 97.004 65.984 96.716 66.236C96.44 66.476 96.302 66.794 96.302 67.19C96.302 67.394 96.338 67.592 96.41 67.784C96.494 67.976 96.638 68.192 96.842 68.432C97.046 68.672 97.34 68.978 97.724 69.35L104.384 75.74L103.142 77.198L95.942 70.286C95.534 69.89 95.204 69.524 94.952 69.188C94.7 68.852 94.52 68.528 94.412 68.216C94.304 67.892 94.25 67.562 94.25 67.226C94.25 66.638 94.4 66.122 94.7 65.678C95 65.222 95.426 64.874 95.978 64.634C96.53 64.382 97.172 64.256 97.904 64.256C98.588 64.256 99.176 64.37 99.668 64.598C100.172 64.814 100.562 65.132 100.838 65.552C101.126 65.96 101.27 66.452 101.27 67.028C101.27 67.532 101.144 68 100.892 68.432C100.64 68.852 100.244 69.254 99.704 69.638C99.176 70.022 98.468 70.424 97.58 70.844C96.92 71.168 96.398 71.474 96.014 71.762C95.63 72.05 95.354 72.338 95.186 72.626C95.018 72.914 94.934 73.232 94.934 73.58C94.934 73.928 95.036 74.234 95.24 74.498C95.456 74.762 95.756 74.972 96.14 75.128C96.524 75.272 96.974 75.344 97.49 75.344C98.258 75.344 98.954 75.176 99.578 74.84C100.214 74.492 100.748 73.976 101.18 73.292C101.612 72.608 101.924 71.762 102.116 70.754L103.934 71.348C103.682 72.56 103.244 73.604 102.62 74.48C102.008 75.344 101.252 76.01 100.352 76.478C99.452 76.946 98.444 77.18 97.328 77.18ZM116.794 77L122.464 64.4H124.768L130.456 77H128.008L123.13 65.642H124.066L119.206 77H116.794ZM119.404 74.084L120.034 72.248H126.838L127.468 74.084H119.404ZM139.564 77.18C138.58 77.18 137.638 77.042 136.738 76.766C135.838 76.478 135.124 76.112 134.596 75.668L135.406 73.85C135.91 74.246 136.534 74.576 137.278 74.84C138.022 75.104 138.784 75.236 139.564 75.236C140.224 75.236 140.758 75.164 141.166 75.02C141.574 74.876 141.874 74.684 142.066 74.444C142.258 74.192 142.354 73.91 142.354 73.598C142.354 73.214 142.216 72.908 141.94 72.68C141.664 72.44 141.304 72.254 140.86 72.122C140.428 71.978 139.942 71.846 139.402 71.726C138.874 71.606 138.34 71.468 137.8 71.312C137.272 71.144 136.786 70.934 136.342 70.682C135.91 70.418 135.556 70.07 135.28 69.638C135.004 69.206 134.866 68.654 134.866 67.982C134.866 67.298 135.046 66.674 135.406 66.11C135.778 65.534 136.336 65.078 137.08 64.742C137.836 64.394 138.79 64.22 139.942 64.22C140.698 64.22 141.448 64.316 142.192 64.508C142.936 64.7 143.584 64.976 144.136 65.336L143.398 67.154C142.834 66.818 142.252 66.572 141.652 66.416C141.052 66.248 140.476 66.164 139.924 66.164C139.276 66.164 138.748 66.242 138.34 66.398C137.944 66.554 137.65 66.758 137.458 67.01C137.278 67.262 137.188 67.55 137.188 67.874C137.188 68.258 137.32 68.57 137.584 68.81C137.86 69.038 138.214 69.218 138.646 69.35C139.09 69.482 139.582 69.614 140.122 69.746C140.662 69.866 141.196 70.004 141.724 70.16C142.264 70.316 142.75 70.52 143.182 70.772C143.626 71.024 143.98 71.366 144.244 71.798C144.52 72.23 144.658 72.776 144.658 73.436C144.658 74.108 144.472 74.732 144.1 75.308C143.74 75.872 143.182 76.328 142.426 76.676C141.67 77.012 140.716 77.18 139.564 77.18ZM156.482 77.18C155.498 77.18 154.592 77.018 153.764 76.694C152.936 76.37 152.216 75.92 151.604 75.344C150.992 74.756 150.518 74.072 150.182 73.292C149.846 72.5 149.678 71.636 149.678 70.7C149.678 69.764 149.846 68.906 150.182 68.126C150.518 67.334 150.992 66.65 151.604 66.074C152.216 65.486 152.936 65.03 153.764 64.706C154.592 64.382 155.492 64.22 156.464 64.22C157.448 64.22 158.348 64.382 159.164 64.706C159.992 65.03 160.712 65.486 161.324 66.074C161.936 66.65 162.41 67.334 162.746 68.126C163.082 68.906 163.25 69.764 163.25 70.7C163.25 71.636 163.082 72.5 162.746 73.292C162.41 74.084 161.936 74.768 161.324 75.344C160.712 75.92 159.992 76.37 159.164 76.694C158.348 77.018 157.454 77.18 156.482 77.18ZM156.464 75.128C157.1 75.128 157.688 75.02 158.228 74.804C158.768 74.588 159.236 74.282 159.632 73.886C160.028 73.478 160.334 73.01 160.55 72.482C160.778 71.942 160.892 71.348 160.892 70.7C160.892 70.052 160.778 69.464 160.55 68.936C160.334 68.396 160.028 67.928 159.632 67.532C159.236 67.124 158.768 66.812 158.228 66.596C157.688 66.38 157.1 66.272 156.464 66.272C155.828 66.272 155.24 66.38 154.7 66.596C154.172 66.812 153.704 67.124 153.296 67.532C152.9 67.928 152.588 68.396 152.36 68.936C152.144 69.464 152.036 70.052 152.036 70.7C152.036 71.336 152.144 71.924 152.36 72.464C152.588 73.004 152.9 73.478 153.296 73.886C153.692 74.282 154.16 74.588 154.7 74.804C155.24 75.02 155.828 75.128 156.464 75.128ZM175.163 77.18C174.203 77.18 173.309 77.024 172.481 76.712C171.665 76.388 170.951 75.938 170.339 75.362C169.739 74.774 169.271 74.084 168.935 73.292C168.599 72.5 168.431 71.636 168.431 70.7C168.431 69.764 168.599 68.9 168.935 68.108C169.271 67.316 169.745 66.632 170.357 66.056C170.969 65.468 171.683 65.018 172.499 64.706C173.315 64.382 174.209 64.22 175.181 64.22C176.213 64.22 177.155 64.4 178.007 64.76C178.859 65.108 179.579 65.63 180.167 66.326L178.655 67.748C178.199 67.256 177.689 66.89 177.125 66.65C176.561 66.398 175.949 66.272 175.289 66.272C174.629 66.272 174.023 66.38 173.471 66.596C172.931 66.812 172.457 67.118 172.049 67.514C171.653 67.91 171.341 68.378 171.113 68.918C170.897 69.458 170.789 70.052 170.789 70.7C170.789 71.348 170.897 71.942 171.113 72.482C171.341 73.022 171.653 73.49 172.049 73.886C172.457 74.282 172.931 74.588 173.471 74.804C174.023 75.02 174.629 75.128 175.289 75.128C175.949 75.128 176.561 75.008 177.125 74.768C177.689 74.516 178.199 74.138 178.655 73.634L180.167 75.074C179.579 75.758 178.859 76.28 178.007 76.64C177.155 77 176.207 77.18 175.163 77.18ZM186.009 77V64.4H188.349V77H186.009ZM193.575 77L199.245 64.4H201.549L207.237 77H204.789L199.911 65.642H200.847L195.987 77H193.575ZM196.185 74.084L196.815 72.248H203.619L204.249 74.084H196.185ZM212.439 77V64.4H217.947C219.315 64.4 220.515 64.664 221.547 65.192C222.579 65.72 223.383 66.452 223.959 67.388C224.535 68.324 224.823 69.428 224.823 70.7C224.823 71.96 224.535 73.064 223.959 74.012C223.383 74.948 222.579 75.68 221.547 76.208C220.515 76.736 219.315 77 217.947 77H212.439ZM214.779 75.02H217.839C218.787 75.02 219.603 74.84 220.287 74.48C220.983 74.12 221.517 73.616 221.889 72.968C222.273 72.32 222.465 71.564 222.465 70.7C222.465 69.824 222.273 69.068 221.889 68.432C221.517 67.784 220.983 67.28 220.287 66.92C219.603 66.56 218.787 66.38 217.839 66.38H214.779V75.02ZM236.814 77.18C235.83 77.18 234.924 77.018 234.096 76.694C233.268 76.37 232.548 75.92 231.936 75.344C231.324 74.756 230.85 74.072 230.514 73.292C230.178 72.5 230.01 71.636 230.01 70.7C230.01 69.764 230.178 68.906 230.514 68.126C230.85 67.334 231.324 66.65 231.936 66.074C232.548 65.486 233.268 65.03 234.096 64.706C234.924 64.382 235.824 64.22 236.796 64.22C237.78 64.22 238.68 64.382 239.496 64.706C240.324 65.03 241.044 65.486 241.656 66.074C242.268 66.65 242.742 67.334 243.078 68.126C243.414 68.906 243.582 69.764 243.582 70.7C243.582 71.636 243.414 72.5 243.078 73.292C242.742 74.084 242.268 74.768 241.656 75.344C241.044 75.92 240.324 76.37 239.496 76.694C238.68 77.018 237.786 77.18 236.814 77.18ZM236.796 75.128C237.432 75.128 238.02 75.02 238.56 74.804C239.1 74.588 239.568 74.282 239.964 73.886C240.36 73.478 240.666 73.01 240.882 72.482C241.11 71.942 241.224 71.348 241.224 70.7C241.224 70.052 241.11 69.464 240.882 68.936C240.666 68.396 240.36 67.928 239.964 67.532C239.568 67.124 239.1 66.812 238.56 66.596C238.02 66.38 237.432 66.272 236.796 66.272C236.16 66.272 235.572 66.38 235.032 66.596C234.504 66.812 234.036 67.124 233.628 67.532C233.232 67.928 232.92 68.396 232.692 68.936C232.476 69.464 232.368 70.052 232.368 70.7C232.368 71.336 232.476 71.924 232.692 72.464C232.92 73.004 233.232 73.478 233.628 73.886C234.024 74.282 234.492 74.588 235.032 74.804C235.572 75.02 236.16 75.128 236.796 75.128ZM253.569 77.18C252.585 77.18 251.643 77.042 250.743 76.766C249.843 76.478 249.129 76.112 248.601 75.668L249.411 73.85C249.915 74.246 250.539 74.576 251.283 74.84C252.027 75.104 252.789 75.236 253.569 75.236C254.229 75.236 254.763 75.164 255.171 75.02C255.579 74.876 255.879 74.684 256.071 74.444C256.263 74.192 256.359 73.91 256.359 73.598C256.359 73.214 256.221 72.908 255.945 72.68C255.669 72.44 255.309 72.254 254.865 72.122C254.433 71.978 253.947 71.846 253.407 71.726C252.879 71.606 252.345 71.468 251.805 71.312C251.277 71.144 250.791 70.934 250.347 70.682C249.915 70.418 249.561 70.07 249.285 69.638C249.009 69.206 248.871 68.654 248.871 67.982C248.871 67.298 249.051 66.674 249.411 66.11C249.783 65.534 250.341 65.078 251.085 64.742C251.841 64.394 252.795 64.22 253.947 64.22C254.703 64.22 255.453 64.316 256.197 64.508C256.941 64.7 257.589 64.976 258.141 65.336L257.403 67.154C256.839 66.818 256.257 66.572 255.657 66.416C255.057 66.248 254.481 66.164 253.929 66.164C253.281 66.164 252.753 66.242 252.345 66.398C251.949 66.554 251.655 66.758 251.463 67.01C251.283 67.262 251.193 67.55 251.193 67.874C251.193 68.258 251.325 68.57 251.589 68.81C251.865 69.038 252.219 69.218 252.651 69.35C253.095 69.482 253.587 69.614 254.127 69.746C254.667 69.866 255.201 70.004 255.729 70.16C256.269 70.316 256.755 70.52 257.187 70.772C257.631 71.024 257.985 71.366 258.249 71.798C258.525 72.23 258.663 72.776 258.663 73.436C258.663 74.108 258.477 74.732 258.105 75.308C257.745 75.872 257.187 76.328 256.431 76.676C255.675 77.012 254.721 77.18 253.569 77.18Z" fill="white"/>
<path d="M269.4 67.8V75.3" stroke="white" stroke-width="3.3" stroke-miterlimit="2.61313" stroke-linecap="round"/>
<path d="M94.424 8.792C93.336 8.792 92.824 9.304 92.824 10.392V53.336C92.824 54.488 93.336 55 94.424 55C95.576 55 96.088 54.488 96.088 53.336V40.728C96.088 40.216 96.408 39.96 96.984 39.96H98.776C98.84 39.96 99.096 40.024 99.288 40.152L117.592 54.68C117.784 54.936 118.104 55 118.488 55C119.576 55 120.088 54.424 120.088 53.272C120.088 52.76 119.832 52.312 119.256 51.928L102.936 39.128C102.68 38.872 102.488 38.744 102.488 38.552C102.488 38.296 102.68 38.104 102.936 37.848L119.256 25.56C119.832 25.176 120.088 24.664 120.088 24.152C120.088 23 119.576 22.488 118.488 22.488C118.168 22.488 117.848 22.552 117.592 22.744L99.224 36.568C99.032 36.632 98.84 36.76 98.776 36.76H96.856C96.344 36.76 96.088 36.44 96.088 35.928V10.392C96.088 9.304 95.576 8.792 94.424 8.792ZM131.495 22.488C130.343 22.488 129.831 23 129.831 24.152V48.792C129.831 52.312 132.583 55 135.591 55H158.439V24.152C158.439 23 157.927 22.488 156.839 22.488C155.687 22.488 155.175 23 155.175 24.152V50.968C155.175 51.48 154.919 51.736 154.407 51.736H135.591C134.375 51.736 133.095 50.52 133.095 48.792V24.152C133.095 23 132.583 22.488 131.495 22.488ZM167.286 53.336C167.286 54.488 167.798 55 168.95 55C170.038 55 170.55 54.488 170.55 53.336V26.52C170.55 26.008 170.806 25.752 171.318 25.752H190.198C191.35 25.752 192.63 27.032 192.63 28.632V53.336C192.63 54.488 193.142 55 194.294 55C195.382 55 195.894 54.488 195.894 53.336V28.632C195.894 25.112 193.142 22.488 190.198 22.488H167.286V53.336ZM206.533 22.488C205.381 22.488 204.869 23 204.869 24.152V29.528C204.869 30.616 205.381 31.128 206.533 31.128C207.621 31.128 208.133 30.616 208.133 29.528V26.52C208.133 26.008 208.389 25.752 208.901 25.752H228.805C229.573 25.752 229.957 26.2 229.957 27.032V33.048C229.957 33.496 229.701 33.752 229.317 33.816L209.029 37.4C206.277 37.912 204.869 39.512 204.869 42.2V53.336C204.869 54.488 205.381 55 206.533 55H233.221V27.032C233.221 24.856 231.365 22.488 229.061 22.488H206.533ZM229.061 37.208C229.637 37.208 229.957 37.4 229.957 37.912V50.968C229.957 51.48 229.701 51.736 229.189 51.736H208.901C208.389 51.736 208.133 51.48 208.133 50.968V42.2C208.133 41.432 208.581 40.792 209.413 40.664L229.061 37.208ZM247.124 22.488C243.668 22.488 241.94 24.152 241.94 27.416V49.944C241.94 53.272 243.668 55 247.188 55H267.028C267.54 55 267.732 55.192 267.732 55.768V67.096C267.732 68.184 268.308 68.696 269.396 68.696C270.548 68.696 271.06 68.184 271.06 67.096V22.488H247.124ZM267.028 25.752C267.54 25.752 267.732 26.008 267.732 26.52V50.968C267.732 51.48 267.54 51.736 267.028 51.736H246.612C245.78 51.736 245.332 51.288 245.332 50.328V26.712C245.332 26.072 245.588 25.752 246.228 25.752H267.028Z" fill="white"/>
<path d="M56 27.5L27 57.5V62.5H33L42 53L51 62.5H60.5L46.5 47.5" stroke="white" stroke-width="1.5" stroke-linecap="round"/>
<path d="M35.5 30V24H27V47.5L55.5 17.5" stroke="white" stroke-width="1.5" stroke-linecap="round"/>
<circle cx="41" cy="44" r="34" stroke="white" stroke-width="2"/>
<line x1="48.8014" y1="10.8662" x2="49.0662" y2="10.9986" stroke="white" stroke-width="1.94" stroke-linecap="round"/>
<path d="M55 13.5C54 12 50.5 11 49 11" stroke="#D61011" stroke-width="2.5"/>
<path d="M49.3672 12.193C49.888 12.3768 50.4592 12.1036 50.643 11.5828C50.8268 11.062 50.5536 10.4908 50.0328 10.307L49.3672 12.193ZM47.6672 11.593L49.3672 12.193L50.0328 10.307L48.3328 9.707L47.6672 11.593Z" fill="white"/>
<circle cx="58" cy="15" r="3" stroke="white" stroke-width="2"/>
<circle cx="58" cy="15" r="2" fill="black"/>
</svg>
